<svg width="29" height="25" viewBox="0 0 29 25" fill="none" xmlns="http://www.w3.org/2000/svg">
<path d="M2.29761 2.48938H6.63094L9.53427 15.3215C9.63334 15.7627 9.90467 16.159 10.3008 16.4411C10.6969 16.7232 11.1925 16.873 11.7009 16.8644H22.2309C22.7393 16.873 23.235 16.7232 23.6311 16.4411C24.0272 16.159 24.2985 15.7627 24.3976 15.3215L26.1309 7.28105H7.71427M12.0476 21.656C12.0476 22.1853 11.5626 22.6144 10.9643 22.6144C10.366 22.6144 9.88094 22.1853 9.88094 21.656C9.88094 21.1268 10.366 20.6977 10.9643 20.6977C11.5626 20.6977 12.0476 21.1268 12.0476 21.656ZM23.9643 21.656C23.9643 22.1853 23.4792 22.6144 22.8809 22.6144C22.2826 22.6144 21.7976 22.1853 21.7976 21.656C21.7976 21.1268 22.2826 20.6977 22.8809 20.6977C23.4792 20.6977 23.9643 21.1268 23.9643 21.656Z" stroke="#1E1E1E" stroke-width="4" stroke-linecap="round" stroke-linejoin="round"/>
</svg>
