<svg width="26" height="21" viewBox="0 0 26 21" fill="none" xmlns="http://www.w3.org/2000/svg">
<path d="M5.58228 15.6519C6.64478 15.0019 7.83228 14.4894 9.14478 14.1144C10.4573 13.7394 11.8323 13.5519 13.2698 13.5519C14.7073 13.5519 16.0823 13.7394 17.3948 14.1144C18.7073 14.4894 19.8948 15.0019 20.9573 15.6519C21.6864 14.9685 22.2542 14.1935 22.6604 13.3269C23.0667 12.4602 23.2698 11.5352 23.2698 10.5519C23.2698 8.33521 22.2958 6.44771 20.3479 4.88938C18.4 3.33105 16.0406 2.55188 13.2698 2.55188C10.4989 2.55188 8.13957 3.33105 6.19165 4.88938C4.24373 6.44771 3.26978 8.33521 3.26978 10.5519C3.26978 11.5352 3.4729 12.4602 3.87915 13.3269C4.2854 14.1935 4.85311 14.9685 5.58228 15.6519ZM13.2698 11.5519C12.0406 11.5519 11.0042 11.2144 10.1604 10.5394C9.31665 9.86438 8.89478 9.03521 8.89478 8.05188C8.89478 7.06855 9.31665 6.23938 10.1604 5.56438C11.0042 4.88938 12.0406 4.55188 13.2698 4.55188C14.4989 4.55188 15.5354 4.88938 16.3792 5.56438C17.2229 6.23938 17.6448 7.06855 17.6448 8.05188C17.6448 9.03521 17.2229 9.86438 16.3792 10.5394C15.5354 11.2144 14.4989 11.5519 13.2698 11.5519ZM13.2698 20.5519C11.5406 20.5519 9.91561 20.2894 8.39478 19.7644C6.87394 19.2394 5.55103 18.5269 4.42603 17.6269C3.30103 16.7269 2.4104 15.6685 1.75415 14.4519C1.0979 13.2352 0.769775 11.9352 0.769775 10.5519C0.769775 9.16855 1.0979 7.86855 1.75415 6.65188C2.4104 5.43521 3.30103 4.37688 4.42603 3.47688C5.55103 2.57688 6.87394 1.86438 8.39478 1.33938C9.91561 0.81438 11.5406 0.55188 13.2698 0.55188C14.9989 0.55188 16.6239 0.81438 18.1448 1.33938C19.6656 1.86438 20.9885 2.57688 22.1135 3.47688C23.2385 4.37688 24.1292 5.43521 24.7854 6.65188C25.4417 7.86855 25.7698 9.16855 25.7698 10.5519C25.7698 11.9352 25.4417 13.2352 24.7854 14.4519C24.1292 15.6685 23.2385 16.7269 22.1135 17.6269C20.9885 18.5269 19.6656 19.2394 18.1448 19.7644C16.6239 20.2894 14.9989 20.5519 13.2698 20.5519Z" fill="#1D1B20"/>
</svg>
